<?xml version="1.0" encoding="UTF-8" standalone="no"?>
<svg width="13px" height="17px" viewBox="0 0 13 17" version="1.1" xmlns="http://www.w3.org/2000/svg" xmlns:xlink="http://www.w3.org/1999/xlink" xmlns:sketch="http://www.bohemiancoding.com/sketch/ns">
    <!-- Generator: Sketch 3.2.1 (9971) - http://www.bohemiancoding.com/sketch -->
    <title>icon-lock</title>
    <desc>Created with Sketch.</desc>
    <defs></defs>
    <g id="Maquettes" stroke="none" stroke-width="1" fill="none" fill-rule="evenodd" sketch:type="MSPage">
        <g id="Landing-page---Sign-in-incorrect" sketch:type="MSArtboardGroup" transform="translate(-624.000000, -418.000000)" stroke="#FFFFFF">
            <g id="Content" sketch:type="MSLayerGroup" transform="translate(583.000000, 243.000000)">
                <g id="Password" transform="translate(31.000000, 164.000000)" sketch:type="MSShapeGroup">
                    <path d="M20.84375,16.7890625 C21.2187519,16.7890625 21.5468736,16.9296861 21.828125,17.2109375 C22.1093764,17.4921889 22.25,17.8203106 22.25,18.1953125 L22.25,25.2265625 C22.25,25.6015644 22.1093764,25.9296861 21.828125,26.2109375 C21.5468736,26.4921889 21.2187519,26.6328125 20.84375,26.6328125 L12.40625,26.6328125 C12.0312481,26.6328125 11.7031264,26.4921889 11.421875,26.2109375 C11.1406236,25.9296861 11,25.6015644 11,25.2265625 L11,18.1953125 C11,17.8203106 11.1406236,17.4921889 11.421875,17.2109375 C11.7031264,16.9296861 12.0312481,16.7890625 12.40625,16.7890625 L13.109375,16.7890625 L13.109375,15.3828125 C13.109375,14.4218702 13.4550747,13.5957066 14.1464844,12.9042969 C14.8378941,12.2128872 15.6640577,11.8671875 16.625,11.8671875 C17.5859423,11.8671875 18.4121059,12.2128872 19.1035156,12.9042969 C19.7949253,13.5957066 20.140625,14.4218702 20.140625,15.3828125 L20.140625,16.7890625 L20.84375,16.7890625 Z M16.625,23.1875 C17.0000019,23.1875 17.3281236,23.0468764 17.609375,22.765625 C17.8906264,22.4843736 18.03125,22.1562519 18.03125,21.78125 C18.03125,21.4062481 17.8906264,21.0781264 17.609375,20.796875 C17.3281236,20.5156236 17.0000019,20.375 16.625,20.375 C16.2499981,20.375 15.9218764,20.5156236 15.640625,20.796875 C15.3593736,21.0781264 15.21875,21.4062481 15.21875,21.78125 C15.21875,22.1562519 15.3593736,22.4843736 15.640625,22.765625 C15.9218764,23.0468764 16.2499981,23.1875 16.625,23.1875 L16.625,23.1875 Z M18.8046875,16.7890625 L18.8046875,15.3828125 C18.8046875,14.7734345 18.5937521,14.2578146 18.171875,13.8359375 C17.7499979,13.4140604 17.234378,13.203125 16.625,13.203125 C16.015622,13.203125 15.5000021,13.4140604 15.078125,13.8359375 C14.6562479,14.2578146 14.4453125,14.7734345 14.4453125,15.3828125 L14.4453125,16.7890625 L18.8046875,16.7890625 Z" id="icon-lock"></path>
                </g>
            </g>
        </g>
    </g>
</svg>
