<?xml version="1.0" encoding="UTF-8" standalone="no"?>
<svg width="210px" height="32px" viewBox="0 0 210 32" version="1.1" xmlns="http://www.w3.org/2000/svg" xmlns:xlink="http://www.w3.org/1999/xlink" xmlns:sketch="http://www.bohemiancoding.com/sketch/ns">
    <!-- Generator: Sketch 3.3 (11970) - http://www.bohemiancoding.com/sketch -->
    <title>logo</title>
    <desc>Created with Sketch.</desc>
    <defs>
        <linearGradient x1="37.3968509%" y1="50%" x2="0%" y2="50%" id="linearGradient-1">
            <stop stop-color="#FFFFFF" offset="0%"></stop>
            <stop stop-color="#000000" stop-opacity="0.58947577" offset="100%"></stop>
        </linearGradient>
        <linearGradient x1="50%" y1="50%" x2="0%" y2="50%" id="linearGradient-2">
            <stop stop-color="#FFFFFF" offset="0%"></stop>
            <stop stop-color="#000000" stop-opacity="0.606600996" offset="100%"></stop>
        </linearGradient>
    </defs>
    <g id="Page-1" stroke="none" stroke-width="1" fill="none" fill-rule="evenodd" sketch:type="MSPage">
        <g id="logo" sketch:type="MSLayerGroup">
            <g id="Page-1" sketch:type="MSShapeGroup">
                <g id="Landing-page">
                    <g id="Group-2">
                        <g id="Logo">
                            <g id="/assets/flppn-logo" fill="#FFFFFF">
                                <path d="M20.025,3.465 L20.025,0 L0,0 L0,31.5 L3.6,31.5 L3.6,18 L18.315,18 L18.315,14.535 L3.6,14.535 L3.6,3.465 L20.025,3.465 L20.025,3.465 Z M47.685,28.08 L47.685,0 L44.085,0 L44.085,31.5 L61.5,31.5 L61.5,28.08 L47.685,28.08 L47.685,28.08 Z M86.1,0 L86.1,31.5 L89.7,31.5 L89.7,21.555 L97.935,21.555 C105.72,21.555 110.22,17.55 110.22,10.575 C110.22,3.87 105.72,0 97.935,0 L86.1,0 L86.1,0 Z M89.7,3.465 L97.8,3.465 C103.47,3.465 106.755,5.895 106.755,10.665 C106.755,15.57 103.47,18.09 97.8,18.09 L89.7,18.09 L89.7,3.465 L89.7,3.465 Z M134.955,0 L134.955,31.5 L138.555,31.5 L138.555,21.555 L146.79,21.555 C154.575,21.555 159.075,17.55 159.075,10.575 C159.075,3.87 154.575,0 146.79,0 L134.955,0 L134.955,0 Z M138.555,3.465 L146.655,3.465 C152.325,3.465 155.61,5.895 155.61,10.665 C155.61,15.57 152.325,18.09 146.655,18.09 L138.555,18.09 L138.555,3.465 L138.555,3.465 Z M210,31.5 L210,0 L206.445,0 L206.445,25.335 L187.545,0 L183.81,0 L183.81,31.5 L187.41,31.5 L187.41,6.21 L206.31,31.5 L210,31.5 L210,31.5 Z" id="FLPPN"></path>
                            </g>
                            <rect id="Rectangle-10" fill="url(#linearGradient-1)" x="3.6000061" y="14.5499878" width="15" height="3.45000005"></rect>
                            <path d="M89.7214966,18.1080933 L98,18.1080933 L98,21.5034791 L89.7385174,21.5034791 L89.7214966,18.1080933 L89.7214966,18.1080933 Z" id="Path-105" fill="url(#linearGradient-2)"></path>
                            <path d="M138.549988,18.1080933 L146.828491,18.1080933 L146.828491,21.5034791 L138.567009,21.5034791 L138.549988,18.1080933 L138.549988,18.1080933 Z" id="Path-105-Copy" fill="url(#linearGradient-2)"></path>
                        </g>
                    </g>
                </g>
            </g>
        </g>
    </g>
</svg>