<?xml version="1.0" encoding="UTF-8" standalone="no"?>
<svg width="210px" height="63px" viewBox="0 0 210 63" version="1.1" xmlns="http://www.w3.org/2000/svg" xmlns:xlink="http://www.w3.org/1999/xlink" xmlns:sketch="http://www.bohemiancoding.com/sketch/ns">
    <!-- Generator: sketchtool 3.5.1 (25234) - http://www.bohemiancoding.com/sketch -->
    <title>Logo</title>
    <desc>Created with sketchtool.</desc>
    <defs>
        <linearGradient x1="37.3968509%" y1="50%" x2="0%" y2="50%" id="linearGradient-1">
            <stop stop-color="#FFFFFF" offset="0%"></stop>
            <stop stop-color="#000000" stop-opacity="0.58947577" offset="100%"></stop>
        </linearGradient>
        <linearGradient x1="50%" y1="50%" x2="0%" y2="50%" id="linearGradient-2">
            <stop stop-color="#FFFFFF" offset="0%"></stop>
            <stop stop-color="#000000" stop-opacity="0.606600996" offset="100%"></stop>
        </linearGradient>
    </defs>
    <g id="Page-1" stroke="none" stroke-width="1" fill="none" fill-rule="evenodd" sketch:type="MSPage">
        <g id="Landing-page" sketch:type="MSArtboardGroup" transform="translate(-613.000000, -298.000000)">
            <g id="Group-2" sketch:type="MSLayerGroup">
                <g id="Logo" transform="translate(613.000000, 298.000000)" sketch:type="MSShapeGroup">
                    <g id="/assets/flppn-logo" fill="#FFFFFF">
                        <path d="M21.5,59.62 L24.16,55.02 L23.34,55.02 L21.1,58.67 L18.83,55.02 L18,55.02 L20.71,59.65 L20.71,62.02 L21.5,62.02 L21.5,59.62 Z M32.3344442,55 C30.2844442,55 28.6644442,56.54 28.6644442,58.52 C28.6644442,60.49 30.2844442,62.06 32.3344442,62.06 C34.3744442,62.06 35.9944442,60.49 35.9944442,58.52 C35.9944442,56.55 34.3744442,55 32.3344442,55 L32.3344442,55 Z M32.3344442,55.76 C33.8944442,55.76 35.1744442,56.98 35.1744442,58.52 C35.1744442,60.06 33.8944442,61.29 32.3344442,61.29 C30.7744442,61.29 29.4744442,60.06 29.4744442,58.52 C29.4744442,56.98 30.7744442,55.76 32.3344442,55.76 L32.3344442,55.76 Z M47.6188884,55.02 L46.8188884,55.02 L46.8188884,59.14 C46.8188884,60.5 46.0188884,61.29 44.6888884,61.29 C43.3588884,61.29 42.5388884,60.5 42.5388884,59.14 L42.5388884,55.02 L41.7388884,55.02 L41.7388884,59.14 C41.7388884,60.96 42.8488884,62.06 44.6888884,62.06 C46.5188884,62.06 47.6188884,60.96 47.6188884,59.14 L47.6188884,55.02 Z M58.6033325,62.02 L59.5133325,62.02 L57.8733325,59.64 C58.8833325,59.31 59.4433325,58.53 59.4433325,57.37 C59.4433325,55.88 58.4333325,55.02 56.6833325,55.02 L54.0233325,55.02 L54.0233325,62.02 L54.8233325,62.02 L54.8233325,59.81 L56.6833325,59.81 C56.8433325,59.81 57.0033325,59.8 57.1533325,59.79 L58.6033325,62.02 Z M54.8233325,59.04 L54.8233325,55.79 L56.6833325,55.79 C57.9533325,55.79 58.6733325,56.33 58.6733325,57.39 C58.6733325,58.48 57.9533325,59.04 56.6833325,59.04 L54.8233325,59.04 Z M72.8822209,55.02 L72.8822209,62.02 L73.6822209,62.02 L73.6822209,59.81 L75.5122209,59.81 C77.2422209,59.81 78.2422209,58.92 78.2422209,57.37 C78.2422209,55.88 77.2422209,55.02 75.5122209,55.02 L72.8822209,55.02 Z M73.6822209,55.79 L75.4822209,55.79 C76.7422209,55.79 77.4722209,56.33 77.4722209,57.39 C77.4722209,58.48 76.7422209,59.04 75.4822209,59.04 L73.6822209,59.04 L73.6822209,55.79 Z M88.5966651,62.02 L89.5066651,62.02 L87.8666651,59.64 C88.8766651,59.31 89.4366651,58.53 89.4366651,57.37 C89.4366651,55.88 88.4266651,55.02 86.6766651,55.02 L84.0166651,55.02 L84.0166651,62.02 L84.8166651,62.02 L84.8166651,59.81 L86.6766651,59.81 C86.8366651,59.81 86.9966651,59.8 87.1466651,59.79 L88.5966651,62.02 Z M84.8166651,59.04 L84.8166651,55.79 L86.6766651,55.79 C87.9466651,55.79 88.6666651,56.33 88.6666651,57.39 C88.6666651,58.48 87.9466651,59.04 86.6766651,59.04 L84.8166651,59.04 Z M96.4911093,62.02 L96.4911093,55.02 L95.6911093,55.02 L95.6911093,62.02 L96.4911093,62.02 Z M105.725553,62.02 L108.585553,55.02 L107.745553,55.02 L105.325553,61.09 L102.915553,55.02 L102.055553,55.02 L104.895553,62.02 L105.725553,62.02 Z M118.119998,60.25 L118.899998,62.02 L119.769998,62.02 L116.639998,55.02 L115.809998,55.02 L112.669998,62.02 L113.519998,62.02 L114.299998,60.25 L118.119998,60.25 Z M117.779998,59.48 L114.639998,59.48 L116.199998,55.93 L117.779998,59.48 Z M129.084442,55.79 L129.084442,55.02 L123.714442,55.02 L123.714442,55.79 L125.994442,55.79 L125.994442,62.02 L126.794442,62.02 L126.794442,55.79 L129.084442,55.79 Z M139.438886,55.79 L139.438886,55.02 L134.688886,55.02 L134.688886,62.02 L139.568886,62.02 L139.568886,61.26 L135.488886,61.26 L135.488886,58.86 L139.018886,58.86 L139.018886,58.09 L135.488886,58.09 L135.488886,55.79 L139.438886,55.79 Z M152.827774,55.02 L152.827774,62.02 L153.627774,62.02 L153.627774,59.81 L155.457774,59.81 C157.187774,59.81 158.187774,58.92 158.187774,57.37 C158.187774,55.88 157.187774,55.02 155.457774,55.02 L152.827774,55.02 Z M153.627774,55.79 L155.427774,55.79 C156.687774,55.79 157.417774,56.33 157.417774,57.39 C157.417774,58.48 156.687774,59.04 155.427774,59.04 L153.627774,59.04 L153.627774,55.79 Z M166.972219,55 C164.922219,55 163.302219,56.54 163.302219,58.52 C163.302219,60.49 164.922219,62.06 166.972219,62.06 C169.012219,62.06 170.632219,60.49 170.632219,58.52 C170.632219,56.55 169.012219,55 166.972219,55 L166.972219,55 Z M166.972219,55.76 C168.532219,55.76 169.812219,56.98 169.812219,58.52 C169.812219,60.06 168.532219,61.29 166.972219,61.29 C165.412219,61.29 164.112219,60.06 164.112219,58.52 C164.112219,56.98 165.412219,55.76 166.972219,55.76 L166.972219,55.76 Z M181.116663,62.02 L182.026663,62.02 L180.386663,59.64 C181.396663,59.31 181.956663,58.53 181.956663,57.37 C181.956663,55.88 180.946663,55.02 179.196663,55.02 L176.536663,55.02 L176.536663,62.02 L177.336663,62.02 L177.336663,59.81 L179.196663,59.81 C179.356663,59.81 179.516663,59.8 179.666663,59.79 L181.116663,62.02 Z M177.336663,59.04 L177.336663,55.79 L179.196663,55.79 C180.466663,55.79 181.186663,56.33 181.186663,57.39 C181.186663,58.48 180.466663,59.04 179.196663,59.04 L177.336663,59.04 Z M194.031107,62.02 L194.031107,55.02 L193.241107,55.02 L193.241107,60.65 L189.041107,55.02 L188.211107,55.02 L188.211107,62.02 L189.011107,62.02 L189.011107,56.4 L193.211107,62.02 L194.031107,62.02 Z" id="YOUR-PRIVATE-PORN"></path>
                        <path d="M20.025,3.465 L20.025,0 L0,0 L0,31.5 L3.6,31.5 L3.6,18 L18.315,18 L18.315,14.535 L3.6,14.535 L3.6,3.465 L20.025,3.465 Z M47.685,28.08 L47.685,0 L44.085,0 L44.085,31.5 L61.5,31.5 L61.5,28.08 L47.685,28.08 Z M86.1,0 L86.1,31.5 L89.7,31.5 L89.7,21.555 L97.935,21.555 C105.72,21.555 110.22,17.55 110.22,10.575 C110.22,3.87 105.72,0 97.935,0 L86.1,0 Z M89.7,3.465 L97.8,3.465 C103.47,3.465 106.755,5.895 106.755,10.665 C106.755,15.57 103.47,18.09 97.8,18.09 L89.7,18.09 L89.7,3.465 Z M134.955,0 L134.955,31.5 L138.555,31.5 L138.555,21.555 L146.79,21.555 C154.575,21.555 159.075,17.55 159.075,10.575 C159.075,3.87 154.575,0 146.79,0 L134.955,0 Z M138.555,3.465 L146.655,3.465 C152.325,3.465 155.61,5.895 155.61,10.665 C155.61,15.57 152.325,18.09 146.655,18.09 L138.555,18.09 L138.555,3.465 Z M210,31.5 L210,0 L206.445,0 L206.445,25.335 L187.545,0 L183.81,0 L183.81,31.5 L187.41,31.5 L187.41,6.21 L206.31,31.5 L210,31.5 Z" id="FLPPN"></path>
                    </g>
                    <rect id="Rectangle-10" fill="url(#linearGradient-1)" x="3.6000061" y="14.5499878" width="15" height="3.45000005"></rect>
                    <path d="M89.7214966,18.1080933 L98,18.1080933 L98,21.5034791 L89.7385174,21.5034791 L89.7214966,18.1080933 Z" id="Path-105" fill="url(#linearGradient-2)"></path>
                    <path d="M138.549988,18.1080933 L146.828491,18.1080933 L146.828491,21.5034791 L138.567009,21.5034791 L138.549988,18.1080933 Z" id="Path-105-Copy" fill="url(#linearGradient-2)"></path>
                </g>
            </g>
        </g>
    </g>
</svg>